<svg width="152" height="40" viewBox="0 0 152 40" fill="none" xmlns="http://www.w3.org/2000/svg">
<rect x="0.5" y="0.5" width="39" height="39" rx="19.5" fill="white" stroke="black"/>
<path d="M24.3448 21.6068L24.863 18.1942H21.621V15.9806C21.621 15.0467 22.0731 14.1359 23.5251 14.1359H25V11.2306C25 11.2306 23.6621 11 22.3836 11C19.7124 11 17.9681 12.6348 17.9681 15.5932V18.1942H15V21.6068H17.9681V29.8571C18.5639 29.9516 19.1735 30 19.7945 30C20.4155 30 21.0251 29.9516 21.621 29.8571V21.6068H24.3448Z" fill="#3B599C" stroke="black"/>
<rect x="56.5" y="0.5" width="39" height="39" rx="19.5" fill="white" stroke="black"/>
<path d="M72.9638 27C70.7686 27 68.7223 26.4273 67 25.4391C68.4623 25.524 71.043 25.3207 72.6481 23.9473C70.2334 23.8479 69.1445 22.1866 69.0024 21.4767C69.2076 21.5477 70.1861 21.6329 70.7385 21.4341C67.9608 20.8093 67.5347 18.6227 67.6294 17.9554C68.1502 18.2819 69.034 18.3955 69.3812 18.3671C66.7929 16.7059 67.7241 14.2069 68.1817 13.6673C70.0392 15.9757 72.823 17.2722 76.2668 17.3443C76.2019 17.0888 76.1676 16.8229 76.1676 16.5497C76.1676 14.5893 77.9341 13 80.1132 13C81.2517 13 82.2776 13.4339 82.9978 14.1278C83.7586 13.9679 84.9036 13.5935 85.4634 13.2698C85.1813 14.1785 84.3028 14.9366 83.7715 15.2175C83.7759 15.2271 83.7672 15.2079 83.7715 15.2175C84.2382 15.1542 85.5011 14.9365 86 14.6329C85.7533 15.1434 84.822 15.9922 84.0577 16.4674C84.1999 22.0927 79.4019 27 72.9638 27Z" fill="#58A7DE"/>
<path d="M83.7715 15.2175C84.3028 14.9366 85.1813 14.1785 85.4634 13.2698C84.9036 13.5935 83.7586 13.9679 82.9978 14.1278C82.2776 13.4339 81.2517 13 80.1132 13C77.9341 13 76.1676 14.5893 76.1676 16.5497C76.1676 16.8229 76.2019 17.0888 76.2668 17.3443C72.823 17.2722 70.0392 15.9757 68.1817 13.6673C67.7241 14.2069 66.7929 16.7059 69.3812 18.3671C69.034 18.3955 68.1502 18.2819 67.6294 17.9554C67.5347 18.6227 67.9608 20.8093 70.7385 21.4341C70.1861 21.6329 69.2076 21.5477 69.0024 21.4767C69.1445 22.1866 70.2334 23.8479 72.6481 23.9473C71.043 25.3207 68.4623 25.524 67 25.4391C68.7223 26.4273 70.7686 27 72.9638 27C79.4019 27 84.1999 22.0927 84.0577 16.4674C84.822 15.9922 85.7533 15.1434 86 14.6329C85.5011 14.9365 84.2382 15.1542 83.7715 15.2175ZM83.7715 15.2175C83.7672 15.2079 83.7759 15.2271 83.7715 15.2175Z" stroke="black"/>
<rect x="112.5" y="0.5" width="39" height="39" rx="19.5" fill="white" stroke="black"/>
<path d="M132.12 12.4H132.88C134.499 12.4 135.629 12.4011 136.51 12.473C137.373 12.5436 137.873 12.6753 138.252 12.8687C139.061 13.2809 139.719 13.9387 140.131 14.7478C140.325 15.1274 140.456 15.6266 140.527 16.4903C140.599 17.3706 140.6 18.501 140.6 20.12V20.88C140.6 22.499 140.599 23.6294 140.527 24.5097C140.456 25.3734 140.325 25.8726 140.131 26.2522C139.719 27.0613 139.061 27.7191 138.252 28.1313C137.873 28.3247 137.373 28.4564 136.51 28.527C135.629 28.5989 134.499 28.6 132.88 28.6H132.12C130.501 28.6 129.371 28.5989 128.49 28.527C127.627 28.4564 127.127 28.3247 126.748 28.1313M132.12 12.4L126.748 28.1313M132.12 12.4C130.501 12.4 129.371 12.4011 128.49 12.473C127.627 12.5436 127.127 12.6753 126.748 12.8687C125.939 13.2809 125.281 13.9387 124.869 14.7478C124.675 15.1274 124.544 15.6266 124.473 16.4903C124.401 17.3706 124.4 18.501 124.4 20.12V20.88C124.4 22.499 124.401 23.6294 124.473 24.5097C124.544 25.3734 124.675 25.8726 124.869 26.2522C125.281 27.0613 125.939 27.7191 126.748 28.1313M132.12 12.4L126.975 27.6858L126.748 28.1313M123.5 20.12C123.5 18.5156 123.5 17.3424 123.576 16.417C123.651 15.4974 123.798 14.8667 124.067 14.3392C124.565 13.3608 125.361 12.5653 126.339 12.0668C126.867 11.798 127.497 11.6511 128.417 11.576C129.342 11.5004 130.516 11.5 132.12 11.5H132.88C134.484 11.5 135.658 11.5004 136.583 11.576C137.503 11.6511 138.133 11.798 138.661 12.0668C139.639 12.5653 140.435 13.3608 140.933 14.3392C141.202 14.8667 141.349 15.4974 141.424 16.417C141.5 17.3424 141.5 18.5156 141.5 20.12V20.88C141.5 22.4844 141.5 23.6576 141.424 24.583C141.349 25.5026 141.202 26.1333 140.933 26.6608C140.435 27.6392 139.639 28.4347 138.661 28.9332C138.133 29.202 137.503 29.3489 136.583 29.424C135.658 29.4996 134.484 29.5 132.88 29.5H132.12C130.516 29.5 129.342 29.4996 128.417 29.424C127.497 29.3489 126.867 29.202 126.339 28.9332C125.361 28.4347 124.565 27.6392 124.067 26.6608C123.798 26.1333 123.651 25.5026 123.576 24.583C123.5 23.6576 123.5 22.4844 123.5 20.88V20.12ZM138.65 15.275C138.65 15.7859 138.236 16.2 137.725 16.2C137.214 16.2 136.8 15.7859 136.8 15.275C136.8 14.7641 137.214 14.35 137.725 14.35C138.236 14.35 138.65 14.7641 138.65 15.275ZM132.5 23.85C134.35 23.85 135.85 22.3502 135.85 20.5C135.85 18.6498 134.35 17.15 132.5 17.15C130.65 17.15 129.15 18.6498 129.15 20.5C129.15 22.3502 130.65 23.85 132.5 23.85ZM136.75 20.5C136.75 22.8472 134.847 24.75 132.5 24.75C130.153 24.75 128.25 22.8472 128.25 20.5C128.25 18.1528 130.153 16.25 132.5 16.25C134.847 16.25 136.75 18.1528 136.75 20.5Z" fill="url(#paint0_linear_1_215)" stroke="black"/>
<defs>
<linearGradient id="paint0_linear_1_215" x1="132.5" y1="11" x2="132.5" y2="30" gradientUnits="userSpaceOnUse">
<stop offset="0.0625" stop-color="#D82D7E"/>
<stop offset="1" stop-color="#FBA756"/>
</linearGradient>
</defs>
</svg>
